{"title":"20141207 - Share The Story - A Lasting Legacy.mp4","uid":11668143,"size":215669801,"categoryP":"video","categoryS":"other","magnet":"?xt=urn:btih:375c7e55270a81bb65fefd3a37b72ed84da1a2e1&amp;dn=20141207+-+Share+The+Story+-+A+Lasting+Legacy.mp4&amp;tr=udp%3A%2F%2Ftracker.openbittorrent.com%3A80&amp;tr=udp%3A%2F%2Fopen.demonii.com%3A1337&amp;tr=udp%3A%2F%2Ftracker.coppersurfer.tk%3A6969&amp;tr=udp%3A%2F%2Fexodus.desync.com%3A6969","seeders":2,"leechers":0,"uploader":"davidrpeet","files":1,"time":1418091497,"description":"Share The Story - A Lasting Legacy\nWeekly sermons from CrossRoads Church in Decatur, Texas\n\n\nGeneral\nFormat                                   : MPEG-4\nFormat profile                           : Base Media / Version 2\nCodec ID                                 : mp42\nFile size                                : 206 MiB\nDuration                                 : 24mn 14s\nOverall bit rate mode                    : Variable\nOverall bit rate                         : 1 186 Kbps\nMovie name                               : Share The Story - A Lasting Legacy\nAlbum                                    : CrossRoads Church \nAlbum/Performer                          : Darren Embree\nPerformer                                : Darren Embree\nComposer                                 : http://crossroadspeople.com/\nGenre                                    : Speech\nRecorded date                            : 2014\nEncoded date                             : UTC 2014-12-08 18:29:25\nTagged date                              : UTC 2014-12-08 18:29:25\nCover                                    : Yes\nComment                                  : CrossRoads To Go Video Podcasts\n\nVideo\nID                                       : 1\nFormat                                   : AVC\nFormat/Info                              : Advanced Video Codec\nFormat profile                           : &lt;a class=&quot;__cf_email__&quot; href=&quot;/cdn-cgi/l/email-protection&quot; data-cfemail=&quot;4901202e2109057a6778&quot;&gt;[email&amp;#160;protected]&lt;/a&gt;&lt;script cf-hash='f9e31' type=&quot;text/javascript&quot;&gt;\n/* &lt;![CDATA[ */!function(){try{var t=&quot;currentScript&quot;in document?document.currentScript:function(){for(var t=document.getElementsByTagName(&quot;script&quot;),e=t.length;e--;)if(t[e].getAttribute(&quot;cf-hash&quot;))return t[e]}();if(t&amp;&amp;t.previousSibling){var e,r,n,i,c=t.previousSibling,a=c.getAttribute(&quot;data-cfemail&quot;);if(a){for(e=&quot;&quot;,r=parseInt(a.substr(0,2),16),n=2;a.length-n;n+=2)i=parseInt(a.substr(n,2),16)^r,e+=String.fromCharCode(i);e=document.createTextNode(e),c.parentNode.replaceChild(e,c)}}}catch(u){}}();/* ]]&gt; */&lt;/script&gt;\nFormat settings, CABAC                   : Yes\nFormat settings, ReFrames                : 4 frames\nCodec ID                                 : avc1\nCodec ID/Info                            : Advanced Video Coding\nDuration                                 : 24mn 14s\nBit rate                                 : 1 034 Kbps\nWidth                                    : 724 pixels\nHeight                                   : 530 pixels\nDisplay aspect ratio                     : 4:3\nFrame rate mode                          : Constant\nFrame rate                               : 29.970 fps\nColor space                              : YUV\nChroma subsampling                       : 4:2:0\nBit depth                                : 8 bits\nScan type                                : Progressive\nBits/(Pixel*Frame)                       : 0.090\nStream size                              : 179 MiB (87%)\nWriting library                          : x264 core 142 r11 24e4fed\nEncoded date                             : UTC 2014-12-08 18:29:25\nTagged date                              : UTC 2014-12-08 18:29:25\nColor primaries                          : BT.709\nTransfer characteristics                 : BT.709\nMatrix coefficients                      : BT.709\n\nAudio\nID                                       : 2\nFormat                                   : AAC\nFormat/Info                              : Advanced Audio Codec\nFormat profile                           : LC\nCodec ID                                 : 40\nDuration                                 : 24mn 14s\nBit rate mode                            : Variable\nBit rate                                 : 147 Kbps\nChannel(s)                               : 2 channels\nChannel positions                        : Front: L R\nSampling rate                            : 48.0 KHz\nCompression mode                         : Lossy\nStream size                              : 25.5 MiB (12%)\nEncoded date                             : UTC 2014-12-08 18:29:25\nTagged date                              : UTC 2014-12-08 18:29:25","torrent":{"xt":"urn:btih:375c7e55270a81bb65fefd3a37b72ed84da1a2e1","amp;dn":"20141207+-+Share+The+Story+-+A+Lasting+Legacy.mp4","amp;tr":["udp%3A%2F%2Ftracker.openbittorrent.com%3A80","udp%3A%2F%2Fopen.demonii.com%3A1337","udp%3A%2F%2Ftracker.coppersurfer.tk%3A6969","udp%3A%2F%2Fexodus.desync.com%3A6969"],"infoHash":"375c7e55270a81bb65fefd3a37b72ed84da1a2e1","infoHashBuffer":{"type":"Buffer","data":[55,92,126,85,39,10,129,187,101,254,253,58,55,183,46,216,77,161,162,225]},"announce":[],"urlList":[]}}